<svg viewBox="0 0 520 520" xml:space="preserve" xmlns="http://www.w3.org/2000/svg" enable-background="new 0 0 520 520"><path d="M30 201.165v250c0 20.8 16.86 37.67 37.67 37.67h384.66c20.81 0 37.67-16.87 37.67-37.67v-250H30z" fill="#ecf0f1" class="fill-ecf0f1"></path><path d="M263.33 317.835v133.33L160 417.835v-133.34z" fill="#2dd4bf" class="fill-e8af21"></path><path d="M360 284.495v133.34l-96.67 33.33v-133.33z" fill="#0d9488" class="fill-d69a16"></path><path d="m360 284.495-96.67 33.34L160 284.495l103.33-33.33z" fill="#f97316" class="fill-ffd24d"></path><path d="M110 51.165c11.05 0 20 8.95 20 20s-8.95 20-20 20-20-8.95-20-20 8.95-20 20-20zM415 31.165c13.81 0 25 11.19 25 25s-11.19 25-25 25-25-11.19-25-25 11.19-25 25-25zM407.07 404.095c1.81 1.811 2.93 4.311 2.93 7.07s-1.12 5.26-2.93 7.07a9.972 9.972 0 0 1-7.07 2.93c-5.52 0-10-4.48-10-10 0-2.76 1.12-5.26 2.93-7.07 1.811-1.81 4.311-2.93 7.07-2.93s5.26 1.12 7.07 2.93zM357.07 34.095c1.81 1.81 2.93 4.31 2.93 7.07s-1.12 5.26-2.93 7.07a9.972 9.972 0 0 1-7.07 2.93c-5.52 0-10-4.48-10-10 0-2.76 1.12-5.26 2.93-7.07 1.811-1.81 4.311-2.93 7.07-2.93s5.26 1.12 7.07 2.93zM287.07 64.095c1.81 1.81 2.93 4.31 2.93 7.07s-1.12 5.26-2.93 7.07a9.972 9.972 0 0 1-7.07 2.93c-5.52 0-10-4.48-10-10 0-2.76 1.12-5.26 2.93-7.07 1.811-1.81 4.311-2.93 7.07-2.93s5.26 1.12 7.07 2.93zM207.07 64.095c1.81 1.81 2.93 4.31 2.93 7.07s-1.12 5.26-2.93 7.07-4.31 2.93-7.07 2.93c-5.52 0-10-4.48-10-10 0-2.76 1.12-5.26 2.93-7.07s4.31-2.93 7.07-2.93 5.26 1.12 7.07 2.93zM127.07 364.095c1.81 1.811 2.93 4.311 2.93 7.07s-1.12 5.26-2.93 7.07a9.969 9.969 0 0 1-7.07 2.93c-5.52 0-10-4.48-10-10 0-2.76 1.12-5.26 2.93-7.07 1.81-1.81 4.31-2.93 7.07-2.93s5.26 1.12 7.07 2.93zM120 351.165c-5.523 0-10-4.478-10-10v-80c0-5.523 4.477-10 10-10s10 4.477 10 10v80c0 5.523-4.477 10-10 10zM400 391.165c-5.522 0-10-4.478-10-10v-70c0-5.522 4.478-10 10-10s10 4.478 10 10v70c0 5.523-4.478 10-10 10zM430 401.165c-5.522 0-10-4.478-10-10v-30c0-5.522 4.478-10 10-10s10 4.478 10 10v30c0 5.523-4.478 10-10 10zM90 361.165c-5.523 0-10-4.478-10-10v-30c0-5.522 4.477-10 10-10s10 4.478 10 10v30c0 5.523-4.477 10-10 10z" fill="#afb9d2" class="fill-afb9d2"></path><path d="M452.33 122.165H67.67c-20.81 0-37.67 16.86-37.67 37.67v42.33h460v-42.33c0-20.81-16.86-37.67-37.67-37.67z" fill="#74829c" class="fill-74829c"></path><path d="M447.07 155.095c1.81 1.81 2.93 4.31 2.93 7.07s-1.12 5.26-2.93 7.07a9.972 9.972 0 0 1-7.07 2.93c-5.52 0-10-4.48-10-10 0-2.76 1.12-5.26 2.93-7.07 1.811-1.81 4.311-2.93 7.07-2.93s5.26 1.12 7.07 2.93z" fill="#ccfbf1" class="fill-d8f2f1"></path><path d="M130 152.165h20v20h-20z" fill="#fdba74" class="fill-80af52"></path><path d="M100 152.165h20v20h-20z" fill="#f97316" class="fill-ffd24d"></path><path d="M70 152.165h20v20H70z" fill="#f97316" class="fill-e3835a"></path><path d="M410 172.165H210c-5.523 0-10-4.477-10-10s4.477-10 10-10h200c5.522 0 10 4.477 10 10s-4.478 10-10 10z" fill="#ccfbf1" class="fill-d8f2f1"></path></svg>