<svg viewBox="0 0 520 520" xml:space="preserve" xmlns="http://www.w3.org/2000/svg" enable-background="new 0 0 520 520"><path d="M440 67.5c11.05 0 20 8.951 20 20 0 11.051-8.95 20-20 20s-20-8.949-20-20c0-11.049 8.95-20 20-20zM85 417.5c13.811 0 25 11.191 25 25 0 13.811-11.189 25-25 25-13.81 0-25-11.189-25-25 0-13.809 11.19-25 25-25z" fill="#0d9488" class="fill-00d27e"></path><circle cx="260" cy="262.5" r="180" fill="#e3f4ff" class="fill-e3f4ff"></circle><path d="m329.4 243.471-66.07 19.009v76.02l66.07 19 66.07-19v-76.02z" fill="#618baa" class="fill-618baa"></path><path d="M395.47 262.48v76.02l-66.07 19v-76.02z" fill="#4e7693" class="fill-4e7693"></path><path d="m395.47 262.48-66.07 19-66.07-19 66.07-19.009z" fill="#99bce4" class="fill-99bce4"></path><circle cx="457.5" cy="150" r="7.5" fill="#bddff4" class="fill-bddff4"></circle><path d="M457.5 372.5c4.14 0 7.5 3.361 7.5 7.5 0 4.141-3.36 7.5-7.5 7.5s-7.5-3.359-7.5-7.5c0-4.139 3.36-7.5 7.5-7.5zM367.5 447.5c4.14 0 7.5 3.361 7.5 7.5 0 4.141-3.36 7.5-7.5 7.5s-7.5-3.359-7.5-7.5c0-4.139 3.36-7.5 7.5-7.5z" fill="#bddff4" class="fill-bddff4"></path><path d="M329.4 281.48v76.02l-66.07-19v-76.02z" fill="#618baa" class="fill-618baa"></path><path d="m263.33 148.451-66.059 19.01v76.01l66.059 19.009 66.07-19.009v-76.01z" fill="#fdba74" class="fill-fd9426"></path><path d="M329.4 167.461v76.01l-66.07 19.009v-76.019z" fill="#f97316" class="fill-fd6d26"></path><path d="m329.4 167.461-66.07 19-66.059-19 66.059-19.01z" fill="#fede93" class="fill-fede93"></path><path d="M197.271 243.471 131.2 262.48v76.02l66.071 19 66.059-19v-76.02z" fill="#2dd4bf" class="fill-006be0"></path><path d="M263.33 262.48v76.02l-66.059 19v-76.02z" fill="#0d9488" class="fill-003fcc"></path><path d="M263.33 186.461v76.019l-66.059-19.009v-76.01z" fill="#fdba74" class="fill-fd9426"></path><path d="m263.33 262.48-66.059 19-66.071-19 66.071-19.009z" fill="#99f6e4" class="fill-43a3f9"></path><path d="M197.271 281.48v76.02l-66.071-19v-76.02z" fill="#2dd4bf" class="fill-006be0"></path><path d="M157.5 432.5c4.141 0 7.5 3.361 7.5 7.5 0 4.141-3.359 7.5-7.5 7.5-4.14 0-7.5-3.359-7.5-7.5 0-4.139 3.36-7.5 7.5-7.5z" fill="#bddff4" class="fill-bddff4"></path><circle cx="132.5" cy="60" r="7.5" fill="#bddff4" class="fill-bddff4"></circle><circle cx="62.5" cy="130" r="7.5" fill="#bddff4" class="fill-bddff4"></circle></svg>