<svg viewBox="0 0 200 200" xml:space="preserve" xmlns="http://www.w3.org/2000/svg"><path fill="#E6EAEE" d="m100.333 200-49.321-28.477V114.57l49.321 28.477z" class="fill-e6eaee"></path><path fill="#CDD3DA" d="M100.333 86.094 51.012 114.57l49.321 28.477 49.324-28.477z" class="fill-cdd3da"></path><path fill="#AAB5BD" d="m100.333 200 49.319-28.477V114.57l-49.319 28.477z" class="fill-aab5bd"></path><path fill="#f97316" d="m149.652 114.57-49.319-28.476V29.141l49.319 28.476z" class="fill-ff7059"></path><path fill="#34495E" d="m149.652.665-49.319 28.476 49.319 28.476 49.323-28.476z" class="fill-34495e"></path><path fill="#14b8a6" d="m149.652 114.57 49.323-28.476V29.141l-49.323 28.476z" class="fill-4bd6c0"></path><g fill="#34495E" class="fill-34495e"><path d="M51.012 115.234a.637.637 0 0 1-.333-.091L1.356 86.668a.665.665 0 0 1-.331-.575V29.141a.663.663 0 0 1 .997-.575l49.323 28.475a.67.67 0 0 1 .332.577v56.953a.66.66 0 0 1-.332.573.662.662 0 0 1-.333.09zM2.354 85.711l47.995 27.708v-55.42L2.354 30.292v55.419z"></path><path d="M51.014 58.281a.66.66 0 0 1-.331-.089L1.356 29.716a.663.663 0 0 1 0-1.15L50.683.088a.672.672 0 0 1 .664 0l49.321 28.478a.66.66 0 0 1 .329.575c0 .24-.123.458-.329.575L51.347 58.192a.673.673 0 0 1-.333.089zM3.018 29.141l47.996 27.708 47.991-27.708L51.014 1.433 3.018 29.141zM100.333 86.758a.681.681 0 0 1-.333-.089l-3.451-1.994a.658.658 0 0 1-.242-.906.662.662 0 0 1 .906-.244l3.451 1.992a.66.66 0 0 1 .244.908.662.662 0 0 1-.575.333zM90.82 81.267a.677.677 0 0 1-.331-.089l-6.059-3.499a.659.659 0 0 1-.242-.908.661.661 0 0 1 .906-.242l6.059 3.497a.661.661 0 0 1 .242.906.663.663 0 0 1-.575.335zm-12.118-7a.663.663 0 0 1-.333-.087l-6.06-3.499a.667.667 0 0 1-.242-.908.66.66 0 0 1 .906-.244l6.06 3.499a.66.66 0 0 1 .244.906.656.656 0 0 1-.575.333zm-12.119-6.996a.656.656 0 0 1-.333-.087l-6.058-3.501a.66.66 0 0 1-.244-.908.67.67 0 0 1 .908-.246l6.058 3.503a.662.662 0 0 1-.331 1.239z"></path><path d="M54.462 60.273a.674.674 0 0 1-.333-.089l-3.117-1.803-3.122 1.803a.663.663 0 0 1-.908-.244.67.67 0 0 1 .244-.908l3.453-1.992a.676.676 0 0 1 .666 0l3.451 1.992a.667.667 0 0 1-.334 1.241zM11.2 81.267a.666.666 0 0 1-.331-1.241l6.061-3.497a.664.664 0 0 1 .664 1.15l-6.061 3.499a.681.681 0 0 1-.333.089zm12.119-6.998a.664.664 0 0 1-.331-1.241l6.059-3.499a.66.66 0 0 1 .908.245.665.665 0 0 1-.242.908l-6.061 3.497a.647.647 0 0 1-.333.09zm12.12-6.998a.664.664 0 0 1-.333-1.239l6.063-3.503a.665.665 0 0 1 .664 1.154l-6.063 3.501a.64.64 0 0 1-.331.087zM1.689 86.758a.657.657 0 0 1-.573-.333.662.662 0 0 1 .24-.908l3.454-1.992a.663.663 0 1 1 .664 1.15l-3.453 1.994a.68.68 0 0 1-.332.089z"></path><path d="M51.012 115.234a.637.637 0 0 1-.333-.091.66.66 0 0 1-.331-.573V57.617a.67.67 0 0 1 .331-.577L100 28.566a.662.662 0 0 1 .664 0c.21.119.333.337.333.575v56.953a.657.657 0 0 1-.333.575l-49.319 28.475a.662.662 0 0 1-.333.09zm.664-57.235v55.42l47.991-27.708V30.292L51.676 57.999zM51.014 5.314a.662.662 0 0 1-.664-.666V.665a.664.664 0 1 1 1.328-.001v3.984a.662.662 0 0 1-.664.666zM51.012 47.295a.661.661 0 0 1-.664-.664v-6.996c0-.367.297-.664.664-.664.37 0 .664.297.664.664v6.996c0 .371-.3.664-.664.664zm0-13.991a.663.663 0 0 1-.664-.662v-6.998c0-.37.297-.664.664-.664a.66.66 0 0 1 .664.664v6.998a.662.662 0 0 1-.664.662zm.002-13.994a.664.664 0 0 1-.664-.664v-7a.664.664 0 1 1 1.328 0v7a.664.664 0 0 1-.664.664z"></path><path d="M51.012 58.281a.661.661 0 0 1-.664-.664v-3.986a.663.663 0 1 1 1.328 0v3.986c0 .369-.3.664-.664.664z"></path></g></svg>