<svg viewBox="0 0 520 520" xml:space="preserve" xmlns="http://www.w3.org/2000/svg" enable-background="new 0 0 520 520"><path d="M455 25c13.81 0 25 11.19 25 25s-11.19 25-25 25-25-11.19-25-25 11.19-25 25-25zM60 405c11.05 0 20 8.95 20 20s-8.95 20-20 20-20-8.95-20-20 8.95-20 20-20z" fill="#cbd5e1" class="fill-74829c"></path><path d="M391.99 329.83v76.2l-33 19.05L326.23 444l-.23-.4v-75.67zM194 291.72v76.21l-65.99-38.1v-76.21zM391.99 177.41l-.1.06L326 215.51l-66-38.1 65.99-38.1z" fill="#fdba74" class="fill-536949"></path><path d="M194 367.93v76.2l-32.99-19.05-33-19.05v-76.2zM260 253.61v76.22l-66-38.11v-76.21zM194.01 139.31l65.99 38.1-66 38.1-65.61-37.88-.28-.16.11-.18zM391.99 177.65v75.97L326 291.72v-76.21l65.89-38.04z" fill="#99f6e4" class="fill-80af52"></path><path d="m326 443.6.23.4L260 482.24v-76.21l66-38.1z" fill="#73ffe1" class="fill-a5c63b"></path><path d="M457.99 253.61v38.12l-66 38.1v-76.21l66-38.11zM326 215.51v76.21l-66 38.11v-76.22zM260 406.03v76.21l-66-38.11v-76.2zM457.99 139.31l-66 38.1-66-38.1 65.54-37.84.23-.39zM128.39 177.63l-.38.65v75.34l-66-38.11v-76.2l66.1 38.16zM260 101.21l65.99 38.1-65.99 38.1-65.99-38.1z" fill="#0d9488" class="fill-ffd24d"></path><path d="M326 291.72v76.21l-66 38.1v-76.2zM457.99 139.31v76.2l-66 38.11v-75.97l-.1-.18.1-.06z" fill="#2dd4bf" class="fill-64e1db"></path><path d="M467.07 417.93c1.81 1.811 2.93 4.311 2.93 7.07s-1.12 5.26-2.93 7.07A9.972 9.972 0 0 1 460 435c-5.52 0-10-4.48-10-10 0-2.76 1.12-5.26 2.93-7.07 1.811-1.81 4.311-2.93 7.07-2.93s5.26 1.12 7.07 2.93z" fill="#cbd5e1" class="fill-74829c"></path><path d="M457.99 291.73v76.2l-66 38.1v-76.2z" fill="#f97316" class="fill-ef727a"></path><path d="M397.07 437.93c1.81 1.811 2.93 4.311 2.93 7.07s-1.12 5.26-2.93 7.07A9.972 9.972 0 0 1 390 455c-5.52 0-10-4.48-10-10 0-2.76 1.12-5.26 2.93-7.07 1.811-1.81 4.311-2.93 7.07-2.93s5.26 1.12 7.07 2.93z" fill="#cbd5e1" class="fill-74829c"></path><path d="M391.99 253.62v76.21L326 367.93v-76.21z" fill="#f97316" class="fill-ef727a"></path><path d="m358.99 82.16 32.77 18.92-.23.39-65.54 37.84-65.99-38.1 65.99-38.1z" fill="#2dd4bf" class="fill-64e1db"></path><path d="M357.07 27.93c1.81 1.81 2.93 4.31 2.93 7.07s-1.12 5.26-2.93 7.07A9.969 9.969 0 0 1 350 45c-5.52 0-10-4.48-10-10 0-2.76 1.12-5.26 2.93-7.07 1.81-1.81 4.31-2.93 7.07-2.93s5.26 1.12 7.07 2.93z" fill="#cbd5e1" class="fill-74829c"></path><path d="m326 215.51-66 38.1-66-38.1 66-38.1z" fill="#2dd4bf" class="fill-64e1db"></path><path d="m260 25 65.99 38.11-65.99 38.1-65.99-38.1zM260 329.83v76.2l-66-38.1v-76.21z" fill="#f97316" class="fill-ef727a"></path><path d="m194.01 63.11 65.99 38.1-65.99 38.1-65.99-38.1 32.99-19.05z" fill="#2dd4bf" class="fill-64e1db"></path><path d="m128.02 101.21 65.99 38.1-65.79 37.98-.11.18-66.1-38.16z" fill="#f97316" class="fill-ef727a"></path><path d="M194 215.51v76.21l-65.99-38.1v-75.34l.38-.65z" fill="#2dd4bf" class="fill-64e1db"></path><path d="M147.07 37.93c1.81 1.81 2.93 4.31 2.93 7.07s-1.12 5.26-2.93 7.07S142.76 55 140 55c-5.52 0-10-4.48-10-10 0-2.76 1.12-5.26 2.93-7.07S137.24 35 140 35s5.26 1.12 7.07 2.93z" fill="#cbd5e1" class="fill-74829c"></path><path d="M128.01 329.83v76.2l-66-38.1v-76.2z" fill="#2dd4bf" class="fill-64e1db"></path><path d="M128.01 253.62v76.21l-66-38.1v-76.22z" fill="#f97316" class="fill-ef727a"></path><path d="M67.07 67.93C68.88 69.74 70 72.24 70 75s-1.12 5.26-2.93 7.07S62.76 85 60 85c-5.52 0-10-4.48-10-10 0-2.76 1.12-5.26 2.93-7.07S57.24 65 60 65s5.26 1.12 7.07 2.93zM67.07 477.93c1.81 1.81 2.93 4.31 2.93 7.07s-1.12 5.26-2.93 7.07A9.969 9.969 0 0 1 60 495c-5.52 0-10-4.48-10-10 0-2.76 1.12-5.26 2.93-7.07 1.81-1.81 4.31-2.93 7.07-2.93s5.26 1.12 7.07 2.93z" fill="#cbd5e1" class="fill-74829c"></path><path d="M470 492.24H90c-5.523 0-10-4.478-10-10s4.477-10 10-10h380c5.522 0 10 4.478 10 10s-4.478 10-10 10z" fill="#e2e8f0" class="fill-afb9d2"></path></svg>